<svg width="127" height="180" xmlns="http://www.w3.org/2000/svg">
 <defs>
  <linearGradient gradientUnits="objectBoundingBox" y2="0.739" x2="0.762" y1="-0.243" x1="0.198" id="linear-gradient">
   <stop stop-color="#82ff92" offset="0"/>
   <stop stop-color="#56b956" offset="1"/>
  </linearGradient>
  <linearGradient gradientUnits="objectBoundingBox" y2="0.739" x2="0.762" y1="-0.243" x1="0.198" id="linear-gradient-2">
   <stop stop-color="#9af6a5" offset="0"/>
   <stop stop-color="#1bad47" offset="1"/>
  </linearGradient>
 </defs>
 <g>
  <title>Layer 1</title>
  <g data-name="Group 4637" id="Group_4637">
   <g data-name="Group 74" id="Group_74">
    <g data-name="Group 71" id="Group_71">
     <text x="350.58691" y="144.8125" letter-spacing="0.012em" font-weight="600" font-family="Cairo-SemiBold, Cairo" font-size="109" fill="#44c465" id="FinEdge">
      <tspan id="svg_1" y="0" x="1387.21396">Fin</tspan>
      <tspan id="svg_2" fill="#3f4351" y="0">Edge</tspan>
     </text>
    </g>
   </g>
   <g data-name="Group 789" id="Group_789">
    <g data-name="Group 786" id="Group_786">
     <g data-name="Group 787" id="Group_787">
      <path fill="url(#linear-gradient)" d="m127.17375,98.43751c0,6.78 -5.5,2.5 -12,4.125c-3.5,0.5 -3.395,-0.272 -5.75,0.213c-3.184,0.654 -3.775,0.182 -3.791,-3.063c0,-3.571 0.059,-7.145 -0.021,-10.714c-0.045,-1.831 0.613,-2.814 2.463,-3.226c4.748,-1.057 9.473,-2.242 14.205,-3.387c3.174,-0.768 4.607,0.3 4.613,3.506c0.007,8.165 0.263,4.385 0.281,12.546z" data-name="Path 629" id="Path_629"/>
      <path fill="url(#linear-gradient-2)" d="m3.20789,78.30553c0,-6.7 -0.525,-13.439 0.1,-20.075c1.5,-15.76 8.65,-28.867 20.424,-39.341a60.782,60.782 0 0 1 37.813,-15.523c30.73,-1.854 58.461,19.886 64.359,50.46c0.752,3.895 -0.758,6.342 -4.547,7.453c-1.74,0.51 -3.5,0.986 -5.27,1.379c-2.605,0.58 -4.033,-0.5 -4.344,-3.169c-2.484,-20.953 -19.674,-38.215 -40.324,-40.991a47.31,47.31 0 0 0 -52.727,36.8a76.9,76.9 0 0 0 -1.131,12.774c-0.191,4.878 0,9.765 -0.076,14.648c-0.021,1.6 0.459,2.5 2.141,2.616c0.646,0.044 1.27,0.292 1.92,0.4a2.622,2.622 0 0 1 2.5,2.966c-0.061,3.862 0.006,7.726 -0.033,11.59c-0.021,2.395 -0.852,3.091 -3.119,2.548c-1.213,-0.291 -2.426,-0.584 -4.087,-0.989c-0.074,-0.018 1.081,72.863 0.677,72.764c-3.083,-0.755 -6.465,-1.6 -9.838,-2.49c-2.429,-0.638 -3.089,-1.068 -3.277,-3.177c-0.017,-0.128 -0.028,-0.644 -0.028,-1.264c-0.007,-5.468 -1.27,-89.379 -1.133,-89.379z" data-name="Path 630" id="Path_630"/>
     </g>
     <path fill="#343548" d="m45.37409,87.19655c0.029,-8.235 0.117,-18.068 0.543,-26.283c0.422,-8.116 8.688,-15.779 17.033,-16.525a19.519,19.519 0 0 1 21.271,15.44a32.977,32.977 0 0 1 0.391,5.644c0.154,3.36 1.354,4.769 4.662,5.153a49.093,49.093 0 0 0 6.691,0.472c2.064,-0.047 3.021,-1.531 3.223,-3.486a34.39,34.39 0 0 0 -26.6,-37.19c-18.75,-4.462 -38.174,8.616 -41.045,27.672a38.415,38.415 0 0 0 -0.43,5.643c-0.041,10.787 -0.057,16.612 -0.184,27.4c-0.016,1.675 -0.154,6.693 -0.154,6.693c0,10.784 -0.023,21.573 0.02,32.361a37.941,37.941 0 0 0 0.432,5.644c2.863,19.055 22.291,32.132 41.045,27.669a34.391,34.391 0 0 0 26.6,-37.189c-0.2,-1.957 -1.156,-3.439 -3.229,-3.486a48.686,48.686 0 0 0 -6.687,0.474c-3.311,0.383 -4.516,1.79 -4.662,5.151a32.781,32.781 0 0 1 -0.391,5.644a19.528,19.528 0 0 1 -21.268,15.443c-8.35,-0.748 -16.613,-8.413 -17.039,-16.528c-0.428,-8.214 -0.16,-16.464 -0.2,-24.7c-0.006,-1.289 0.482,-1.745 1.9,-1.588c3.031,0.336 6.094,0.536 9.143,0.625a224.377,224.377 0 0 0 39.844,-2.131c1.947,-0.293 2.674,-1.1 2.662,-3.134c-0.055,-9.337 -0.055,-3.8 -0.047,-13.136a265.477,265.477 0 0 1 -27.279,1.426c-16.443,0.109 -18.213,-0.551 -24.105,-0.742c-1.627,-0.053 -2.154,-0.753 -2.139,-2.287l-0.001,-0.149z" data-name="Path 631" id="Path_631"/>
    </g>
   </g>
  </g>
 </g>
</svg>