<svg xmlns="http://www.w3.org/2000/svg" xmlns:xlink="http://www.w3.org/1999/xlink" width="1920" height="1920" viewBox="0 0 1920 1920">
  <metadata><?xpacket begin="﻿" id="W5M0MpCehiHzreSzNTczkc9d"?>
<x:xmpmeta xmlns:x="adobe:ns:meta/" x:xmptk="Adobe XMP Core 5.6-c142 79.160924, 2017/07/13-01:06:39        ">
   <rdf:RDF xmlns:rdf="http://www.w3.org/1999/02/22-rdf-syntax-ns#">
      <rdf:Description rdf:about=""/>
   </rdf:RDF>
</x:xmpmeta>
                                                                                                    
                                                                                                    
                                                                                                    
                                                                                                    
                                                                                                    
                                                                                                    
                                                                                                    
                                                                                                    
                                                                                                    
                                                                                                    
                                                                                                    
                                                                                                    
                                                                                                    
                                                                                                    
                                                                                                    
                                                                                                    
                                                                                                    
                                                                                                    
                                                                                                    
                                                                                                    
                           
<?xpacket end="w"?></metadata>
<defs>
    <style>
      .cls-1, .cls-2 {
        fill-rule: evenodd;
      }

      .cls-1 {
        fill: url(#linear-gradient);
      }

      .cls-2 {
        fill: #343548;
      }
    </style>
    <linearGradient id="linear-gradient" x1="601.618" y1="126.313" x2="1303.385" y2="1825.91" gradientUnits="userSpaceOnUse">
      <stop offset="NaN" stop-color="#5899f9"/>
      <stop offset="Infinity" stop-color="#5899f9"/>
    </linearGradient>
  </defs>
  <path id="Tracé_630_copy" data-name="Tracé 630 copy" class="cls-1" d="M390.938,1143.45c0,61.46-4.824,123.35.934,184.25,13.758,144.64,59.578,264.41,167.594,360.53,98.614,87.7,239.593,128.51,372.033,137.67,272.231-3.61,506.381-144.45,583.5-467.9,3.17-36.27,0-48.08-34.77-58.28-15.96-4.68-32.08-9.05-48.34-12.66-23.9-5.32-36.16-.67-39.85,23.76C1363.89,1493.93,1219.47,1645.86,1017,1679c-234.733,38.43-451.3-89.95-494.823-299.95-7.912-38.17-8.762-102.5-10.19-141.69,2.187,56.06-.464-256.717-0.464-316.763-0.005-.686,3.48-795.206-0.238-794.3-28.277,6.928-59.31,14.726-90.258,22.851-22.286,5.851-28.339,9.8-30.063,29.164-0.172,1.167-.258,5.912-0.258,11.6C390.619,240.068,389.682,1143.45,390.938,1143.45Z"/>
  <path id="Tracé_631_copy" data-name="Tracé 631 copy" class="cls-2" d="M730.157,741.551c0.322-94.072,1.332-206.39,6.186-300.228,4.822-92.715,99.165-180.248,194.441-188.77,116.926-10.476,217.166,61.675,242.806,176.372,4.61,20.783,3.51,42.941,4.46,64.467,1.76,38.387,15.46,54.47,53.21,58.867,25.4,2.93,51,5.952,76.4,5.386,23.55-.537,34.48-17.489,36.78-39.824C1364.82,318.552,1236.96,139.7,1040.83,93,826.811,42.03,605.087,191.422,572.293,409.092c-3.2,21.254-8.765,41.542-8.827,63.056-0.754,195.966.069,390.814,0.069,390.814,0,123.185-.26,246.428.23,369.658a432.929,432.929,0,0,0,4.93,64.47c32.687,217.66,254.442,367.04,468.525,316.06,196.08-46.71,324.01-225.55,303.59-424.81-2.27-22.36-13.18-39.29-36.84-39.83-25.37-.57-51.01,2.46-76.33,5.42-37.81,4.37-51.54,20.44-53.22,58.84-0.98,21.54.21,43.67-4.46,64.47-25.69,114.69-125.91,186.83-242.774,176.4-95.307-8.54-189.634-96.1-194.487-188.8-4.884-93.83-1.837-188.07-2.281-282.136-0.062-14.728,5.5-19.933,21.679-18.141,34.586,3.839,69.555,6.125,104.34,7.144,152.213,4.393,303.913-1.7,454.823-24.345,22.25-3.344,30.51-12.594,30.39-35.794-0.63-106.657-.63-43.4-0.53-150.05,0,0-123.71,15.014-311.4,16.286-187.69,1.252-207.885-6.289-275.158-8.48-18.571-.6-24.588-8.6-24.4-26.123v-1.65Z"/>
</svg>
