<svg xmlns="http://www.w3.org/2000/svg" xmlns:xlink="http://www.w3.org/1999/xlink" width="500" zoomAndPan="magnify" viewBox="0 0 375 374.999991" height="500" preserveAspectRatio="xMidYMid meet" version="1.0"><defs><g/></defs><g fill="#000000" fill-opacity="1"><g transform="translate(96.306884, 213.891173)"><g><path d="M 74.25 32.09375 C 72.84375 29.875 69.941406 27.101562 65.546875 23.78125 C 61.160156 20.46875 55.867188 17.171875 49.671875 13.890625 C 43.484375 10.609375 36.957031 7.820312 30.09375 5.53125 C 23.238281 3.25 16.710938 2.109375 10.515625 2.109375 C 2.835938 2.109375 -3.210938 4.171875 -7.640625 8.296875 C -7.785156 8.296875 -7.859375 7.851562 -7.859375 6.96875 L -7.75 3.875 C -7.75 2.320312 -7.894531 0.238281 -8.1875 -2.375 C -8.476562 -5 -9.472656 -7.859375 -11.171875 -10.953125 C -12.867188 -14.046875 -15.785156 -16.476562 -19.921875 -18.25 L -19.25 -18.25 C -10.320312 -18.25 -2.835938 -21.070312 3.203125 -26.71875 C 9.253906 -32.363281 13.90625 -39.722656 17.15625 -48.796875 C 21.207031 -60.160156 23.234375 -72.035156 23.234375 -84.421875 C 23.234375 -91.722656 22.398438 -99.046875 20.734375 -106.390625 C 19.078125 -113.734375 16.1875 -119.578125 12.0625 -123.921875 L 12.28125 -124.265625 C 14.050781 -127.066406 15.46875 -129.8125 16.53125 -132.5 C 17.601562 -135.195312 18.140625 -138.976562 18.140625 -143.84375 C 18.140625 -149.894531 16.332031 -155.332031 12.71875 -160.15625 C 9.101562 -164.988281 4.289062 -168.84375 -1.71875 -171.71875 C -7.726562 -174.601562 -14.421875 -176.226562 -21.796875 -176.59375 C -21.203125 -178.21875 -19.816406 -180.023438 -17.640625 -182.015625 C -15.472656 -184.003906 -11.617188 -185.257812 -6.078125 -185.78125 L -4.875 -185.78125 C -1.332031 -185.78125 2.257812 -185.0625 5.90625 -183.625 C 9.5625 -182.1875 13.347656 -180.507812 17.265625 -178.59375 C 21.765625 -176.375 26.484375 -174.378906 31.421875 -172.609375 C 36.367188 -170.835938 41.570312 -169.84375 47.03125 -169.625 C 41.414062 -162.175781 38.390625 -152.992188 37.953125 -142.078125 L 37.84375 -137.203125 C 37.84375 -128.054688 38.984375 -118.984375 41.265625 -109.984375 C 43.554688 -100.984375 46.175781 -94.492188 49.125 -90.515625 C 45.957031 -84.390625 43.046875 -77.488281 40.390625 -69.8125 C 37.359375 -60.894531 35.84375 -52.34375 35.84375 -44.15625 C 35.84375 -36.925781 37.539062 -30.140625 40.9375 -23.796875 C 35.851562 -23.566406 31.78125 -22.363281 28.71875 -20.1875 C 25.65625 -18.007812 24.125 -15.816406 24.125 -13.609375 C 24.125 -11.691406 26.59375 -10.050781 31.53125 -8.6875 C 36.476562 -7.320312 42.34375 -6.640625 49.125 -6.640625 C 55.988281 -6.640625 63 -7.523438 70.15625 -9.296875 C 77.3125 -11.066406 83.210938 -14.050781 87.859375 -18.25 C 92.054688 -22.75 94.15625 -27.363281 94.15625 -32.09375 C 94.15625 -32.75 93.972656 -34.585938 93.609375 -37.609375 C 93.242188 -40.640625 91.617188 -43.703125 88.734375 -46.796875 C 98.691406 -43.554688 105.441406 -38.800781 108.984375 -32.53125 C 112.304688 -26.625 113.96875 -20.757812 113.96875 -14.9375 C 113.96875 -14.570312 113.894531 -12.742188 113.75 -9.453125 C 113.601562 -6.171875 112.789062 -3.019531 111.3125 0 L 111.203125 0 C 108.109375 -0.8125 104.753906 -1.21875 101.140625 -1.21875 C 97.523438 -1.21875 93.890625 -0.390625 90.234375 1.265625 C 86.578125 2.929688 83.328125 6.175781 80.484375 11 C 77.648438 15.832031 75.570312 22.863281 74.25 32.09375 Z M 74.25 32.09375 "/></g></g></g><g fill="#000000" fill-opacity="1"><g transform="translate(189.710448, 312.171985)"><g><path d="M 52.921875 28.03125 C 58.804688 21.625 63.097656 14.414062 65.796875 6.40625 C 68.503906 -1.59375 69.890625 -8.53125 69.953125 -14.40625 L 69.953125 -16.25 C 69.953125 -32.84375 67.695312 -46.203125 63.1875 -56.328125 C 58.675781 -66.460938 52.171875 -71.53125 43.671875 -71.53125 C 38.597656 -71.53125 34.460938 -69.765625 31.265625 -66.234375 C 28.066406 -62.710938 25.648438 -58.128906 24.015625 -52.484375 C 22.097656 -45.785156 21.140625 -38.304688 21.140625 -30.046875 C 21.140625 -24.566406 21.570312 -18.859375 22.4375 -12.921875 C 23.3125 -6.984375 24.738281 -1.351562 26.71875 3.96875 C 28.695312 9.300781 31.054688 13.394531 33.796875 16.25 C 26.515625 13.507812 20.789062 10.550781 16.625 7.375 C 12.46875 4.207031 9.066406 0.53125 6.421875 -3.65625 C 3.773438 -7.851562 1.050781 -12.863281 -1.75 -18.6875 C -3.726562 -22.707031 -6.054688 -27.21875 -8.734375 -32.21875 C -7.804688 -31.988281 -6.90625 -31.875 -6.03125 -31.875 C -2.070312 -31.875 1.507812 -34.054688 4.71875 -38.421875 C 7.570312 -42.378906 9 -47.445312 9 -53.625 L 9 -55.375 C 8.53125 -60.03125 7.203125 -63.640625 5.015625 -66.203125 C 2.835938 -68.765625 0.425781 -70.597656 -2.21875 -71.703125 C -4.875 -72.804688 -7.078125 -73.535156 -8.828125 -73.890625 L -10.484375 -74.40625 C -3.554688 -76.15625 1.65625 -79.738281 5.15625 -85.15625 C 9.164062 -91.4375 11.171875 -99.003906 11.171875 -107.859375 C 11.171875 -113.734375 10.195312 -119.859375 8.25 -126.234375 C 6.300781 -132.609375 3.144531 -138.300781 -1.21875 -143.3125 C 2.5 -143.082031 6.660156 -141.816406 11.265625 -139.515625 C 15.867188 -137.210938 20.296875 -134.269531 24.546875 -130.6875 C 28.796875 -127.113281 32.332031 -123.273438 35.15625 -119.171875 C 37.976562 -115.066406 39.390625 -111.117188 39.390625 -107.328125 C 36.765625 -109.773438 34.753906 -111 33.359375 -111 C 32.191406 -111 31.347656 -110.34375 30.828125 -109.03125 C 30.304688 -107.726562 30 -106.144531 29.90625 -104.28125 C 29.820312 -102.414062 29.78125 -100.640625 29.78125 -98.953125 C 29.78125 -95.742188 30.347656 -92.625 31.484375 -89.59375 C 32.617188 -86.570312 34.203125 -84.085938 36.234375 -82.140625 C 38.273438 -80.191406 40.691406 -79.21875 43.484375 -79.21875 C 53.328125 -79.21875 60.347656 -84.367188 64.546875 -94.671875 C 67.390625 -101.828125 68.8125 -110.734375 68.8125 -121.390625 C 68.8125 -123.660156 68.679688 -126.875 68.421875 -131.03125 C 68.160156 -135.195312 67.460938 -140.085938 66.328125 -145.703125 C 65.191406 -151.328125 63.835938 -156.304688 62.265625 -160.640625 C 60.691406 -164.984375 59.003906 -168.257812 57.203125 -170.46875 C 61.453125 -170.125 66.53125 -168.613281 72.4375 -165.9375 C 78.351562 -163.257812 83.785156 -159.796875 88.734375 -155.546875 C 93.679688 -151.296875 96.882812 -146.664062 98.34375 -141.65625 C 93.675781 -141.070312 90.269531 -138.976562 88.125 -135.375 C 85.675781 -131.238281 84.453125 -126.023438 84.453125 -119.734375 C 84.453125 -115.890625 84.972656 -112.003906 86.015625 -108.078125 C 87.066406 -104.148438 88.613281 -101.109375 90.65625 -98.953125 C 87.101562 -98.953125 84.421875 -96.257812 82.609375 -90.875 C 80.804688 -85.488281 79.789062 -78.050781 79.5625 -68.5625 L 79.5625 -67.953125 C 79.5625 -62.296875 80.421875 -56.585938 82.140625 -50.828125 C 83.859375 -45.066406 85.789062 -39.503906 87.9375 -34.140625 C 90.09375 -28.785156 91.722656 -23.984375 92.828125 -19.734375 C 93.359375 -17.929688 93.625 -14.644531 93.625 -9.875 C 93.5625 -5.039062 92.453125 0.179688 90.296875 5.796875 C 88.148438 11.421875 84.164062 16.359375 78.34375 20.609375 C 72.519531 24.859375 64.046875 27.332031 52.921875 28.03125 Z M 52.921875 28.03125 "/></g></g></g></svg>